<svg xmlns="http://www.w3.org/2000/svg" xmlns:xlink="http://www.w3.org/1999/xlink" id="Lager_1" x="0" y="0" version="1.1" viewBox="0 0 116.5 43.6" style="enable-background:new 0 0 116.5 43.6" xml:space="preserve"><style type="text/css">.st0{fill:none;stroke:#000;stroke-width:2;stroke-miterlimit:10}</style><rect width="34.6" height="8.7" x="81" y="14.1"/><rect width="34.6" height="8.2" x="81" y=".6"/><g><line x1=".9" x2="115.6" y1="41.3" y2="41.3" class="st0"/></g><path d="M88.7,27.3L88.7,27.3l-12.1,0V0.6h-19l-5.5,8.9l0-0.1l-5.1,8.4l0,0L35.4,36.5h10.5l6.2-10.2l6.2,10.2h33.2h24.1v-9.2H88.7z M67.3,34.2L57.2,17.9L67.3,1.2V34.2z"/><polygon points="25.2 13.7 33.2 .6 23.1 .6 .9 36.5 11.4 36.5 19.9 22.4 38.5 22.4 41.5 18.1 38.5 13.7"/><polygon points="41.5 .6 36.6 .8 45.8 15.9 50.9 7.6 46.6 .6"/></svg>